<?xml version="1.0" standalone="no"?>
<!DOCTYPE svg PUBLIC "-//W3C//DTD SVG 20010904//EN"
 "http://www.w3.org/TR/2001/REC-SVG-20010904/DTD/svg10.dtd">
<svg version="1.0" xmlns="http://www.w3.org/2000/svg"
 width="260.000000pt" height="260.000000pt" viewBox="0 0 260.000000 260.000000"
 preserveAspectRatio="xMidYMid meet">
<metadata>
Created by potrace 1.14, written by Peter Selinger 2001-2017
</metadata>
<g transform="translate(0.000000,260.000000) scale(0.100000,-0.100000)"
fill="#000000" stroke="none">
<path d="M260 1496 l0 -841 125 0 125 0 1 30 c1 36 0 1528 0 1602 l-1 52 -125
-1 -125 -1 0 -841z"/>
<path d="M658 2323 c-2 -10 -4 -389 -3 -843 l0 -825 60 0 60 0 1 841 2 841
-58 2 c-47 1 -58 -2 -62 -16z"/>
<path d="M917 2334 c-3 -4 -6 -384 -7 -845 l0 -839 64 0 63 0 0 845 1 845 -58
0 c-31 0 -59 -3 -63 -6z"/>
<path d="M1174 2331 c-2 -2 -4 -382 -4 -843 l0 -839 130 2 130 1 0 839 c0 664
-3 839 -12 840 -35 4 -240 3 -244 0z"/>
<path d="M1566 2331 c-2 -3 -4 -380 -4 -838 0 -611 3 -833 12 -835 6 -3 34 -4
61 -3 l50 1 2 842 2 842 -60 -1 c-32 -1 -61 -4 -63 -8z"/>
<path d="M1827 2331 c-3 -6 -1 -1640 2 -1669 1 -9 17 -12 59 -10 l57 3 3 841
2 842 -60 0 c-33 0 -62 -3 -63 -7z"/>
<path d="M2090 2317 c-1 -31 -1 -1441 0 -1565 l0 -103 123 3 122 3 0 840 0
840 -122 2 c-120 1 -123 1 -123 -20z"/>
<path d="M277 512 c-12 -3 -15 -23 -13 -125 l1 -122 123 -1 c107 -2 122 0 122
15 1 9 2 64 3 123 l2 107 -111 3 c-61 2 -118 2 -127 0z"/>
<path d="M655 511 c-3 -2 -5 -59 -5 -126 l0 -123 62 2 63 1 0 123 c0 77 -3
122 -10 123 -37 4 -106 4 -110 0z"/>
<path d="M960 510 l-45 -5 0 -121 0 -122 257 0 258 0 0 124 c0 68 -3 124 -7
125 -42 3 -429 3 -463 -1z"/>
<path d="M1598 512 l-36 -3 1 -122 2 -122 126 -1 125 -2 2 124 c1 92 -2 124
-11 125 -62 3 -179 3 -209 1z"/>
<path d="M1975 512 c-19 -3 -21 -10 -20 -127 l0 -125 63 1 62 1 0 124 c0 122
0 124 -22 125 -13 0 -32 2 -43 3 -11 1 -29 0 -40 -2z"/>
<path d="M2215 385 l0 -125 61 0 62 0 1 125 1 125 -63 0 -63 0 1 -125z"/>
</g>
</svg>
